<svg xmlns="http://www.w3.org/2000/svg" viewBox="0 0 1254 1254" width="1254" height="1254">
<defs>
<filter id="softGlow" x="-20%" y="-20%" width="140%" height="140%"><feGaussianBlur stdDeviation="5" result="blur"/><feMerge><feMergeNode in="blur"/><feMergeNode in="SourceGraphic"/></feMerge></filter>
</defs>
<rect width="100%" height="100%" fill="#000000"/>
<g id="bet_layers" fill="#ffffff" filter="url(#softGlow)">
  <g id="vav_top" data-layer="vav_top">
    <path d="M 398.0 328.0 L 397.0 349.0 L 400.0 369.0 L 404.0 381.0 L 416.0 402.0 L 432.0 419.0 L 443.0 427.0 L 462.0 436.0 L 475.0 439.0 L 658.0 440.0 L 709.0 446.0 L 710.0 429.0 L 759.0 429.0 L 760.0 404.0 L 884.0 404.0 L 867.0 374.0 L 843.0 347.0 L 814.0 326.0 L 786.0 313.0 L 745.0 302.0 L 703.0 297.0 L 507.0 296.0 L 493.0 294.0 L 477.0 289.0 L 461.0 279.0 L 449.0 266.0 L 437.0 240.0 L 434.0 241.0 L 409.0 292.0 Z"/>
  </g>
  <g id="vav_right" data-layer="vav_right">
    <path d="M 884.0 405.0 L 760.0 405.0 L 759.0 430.0 L 710.0 430.0 L 710.0 447.0 L 728.0 452.0 L 747.0 461.0 L 776.0 483.0 L 797.0 511.0 L 809.0 540.0 L 816.0 585.0 L 815.0 789.0 L 819.0 789.0 L 820.0 754.0 L 906.0 754.0 L 905.0 499.0 L 899.0 452.0 Z"/>
  </g>
  <g id="vav_bottom" data-layer="vav_bottom">
    <path d="M 979.0 812.0 L 951.0 805.0 L 933.0 795.0 L 916.0 778.0 L 906.0 755.0 L 820.0 755.0 L 820.0 789.0 L 815.0 790.0 L 814.0 816.0 L 449.0 815.0 L 331.0 955.0 L 332.0 957.0 L 924.0 957.0 Z"/>
  </g>
</g>
</svg>